<svg xmlns="http://www.w3.org/2000/svg" version="1.1" xmlns:xlink="http://www.w3.org/1999/xlink" xmlns:svgjs="http://svgjs.dev/svgjs" width="1500" height="1500" viewBox="0 0 1500 1500"><rect width="1500" height="1500" fill="#ffffff"></rect><g transform="matrix(0.6666666666666666,0,0,0.6666666666666666,249.85778443113782,249.85778443113765)"><svg viewBox="0 0 334 334" data-background-color="#ffffff" preserveAspectRatio="xMidYMid meet" height="1500" width="1500" xmlns="http://www.w3.org/2000/svg" xmlns:xlink="http://www.w3.org/1999/xlink"><g id="tight-bounds" transform="matrix(1,0,0,1,0.04749999999998522,0.04750000000001364)"><svg viewBox="0 0 333.90454557049503 333.90454557049503" height="333.90454557049503" width="333.90454557049503"><g><svg></svg></g><g><svg viewBox="0 0 333.90454557049503 333.90454557049503" height="333.90454557049503" width="333.90454557049503"><g><path d="M0 166.952c0-92.205 74.747-166.952 166.952-166.952 92.205 0 166.952 74.747 166.953 166.952 0 92.205-74.747 166.952-166.953 166.953-92.205 0-166.952-74.747-166.952-166.953zM166.952 316.63c82.665 0 149.677-67.013 149.678-149.678 0-82.665-67.013-149.677-149.678-149.677-82.665 0-149.677 67.013-149.677 149.677 0 82.665 67.013 149.677 149.677 149.678z" data-fill-palette-color="tertiary" fill="#000000" stroke="transparent"></path><ellipse rx="160.27418187383762" ry="160.27418187383762" cx="166.95227278524752" cy="166.95227278524752" fill="#000000" stroke="transparent" stroke-width="0" fill-opacity="1" data-fill-palette-color="tertiary"></ellipse></g><g transform="matrix(1,0,0,1,83.25794712157015,71.17305217166896)"><svg viewBox="0 0 167.38865132735472 191.55844122715712" height="191.55844122715712" width="167.38865132735472"><g><svg viewBox="0 0 167.38865132735472 191.55844122715712" height="191.55844122715712" width="167.38865132735472"><g><svg viewBox="0 0 167.38865132735472 191.55844122715712" height="191.55844122715712" width="167.38865132735472"><g id="textblocktransform"><svg viewBox="0 0 167.38865132735472 191.55844122715712" height="191.55844122715712" width="167.38865132735472" id="textblock"><g><svg viewBox="0 0 167.38865132735472 191.55844122715712" height="191.55844122715712" width="167.38865132735472"><g transform="matrix(1,0,0,1,0,0)"><svg width="167.38865132735472" viewBox="0.22 -36.11 31.79 36.379999999999995" height="191.55844122715712" data-palette-color="#e7f0dc"><path d="M17.26-4.35L10.42-4.35Q5.96-4.35 4.32-4.42L4.32-4.42 3.61-2.73Q3.3-2.03 3.03-1.25L3.03-1.25Q2.47 0.27 1.46 0.27L1.46 0.27Q1 0.27 0.71-0.02 0.42-0.32 0.42-0.63L0.42-0.63Q0.42-1.17 0.88-1.83L0.88-1.83Q1.61-2.86 2.32-4.52L2.32-4.52Q0.22-4.71 0.22-5.74 0.22-6.76 1.42-6.76L1.42-6.76Q2.15-6.76 3.13-6.52L3.13-6.52 15.31-36.11 32.01 0 19.29 0 17.26-4.35ZM10.35-19.29L5.1-6.32Q7.45-6.13 9.3-6.13L9.3-6.13 16.46-6.13 10.35-19.29Z" opacity="1" transform="matrix(1,0,0,1,0,0)" fill="#ffffff" class="wordmark-text-0" data-fill-palette-color="quaternary" id="text-0"></path></svg></g></svg></g></svg></g></svg></g></svg></g></svg></g></svg></g><defs></defs></svg><rect width="333.90454557049503" height="333.90454557049503" fill="none" stroke="none" visibility="hidden"></rect></g></svg></g></svg>